<svg width="24" height="29" viewBox="0 0 24 29" fill="none" xmlns="http://www.w3.org/2000/svg">
<path d="M11.8974 29C13.5333 29 14.8718 27.6615 14.8718 26.0256H8.92308C8.92308 27.6615 10.2615 29 11.8974 29ZM20.8205 20.0769V12.641C20.8205 8.07539 18.3964 4.25333 14.1282 3.24205V2.23077C14.1282 0.99641 13.1318 0 11.8974 0C10.6631 0 9.66667 0.99641 9.66667 2.23077V3.24205C5.41333 4.25333 2.97436 8.06051 2.97436 12.641V20.0769L0 23.0513V24.5385H23.7949V23.0513L20.8205 20.0769ZM17.8462 21.5641H5.94872V12.641C5.94872 8.95282 8.19436 5.94872 11.8974 5.94872C15.6005 5.94872 17.8462 8.95282 17.8462 12.641V21.5641Z" fill="#B3093F"/>
</svg>
