<svg width="15" height="20" viewBox="0 0 15 20" fill="none" xmlns="http://www.w3.org/2000/svg">
<path d="M8.95219 0.395508H2.66675C2.03686 0.395508 1.43277 0.64573 0.987369 1.09113C0.54197 1.53653 0.291748 2.14062 0.291748 2.77051V17.0205C0.291748 17.6504 0.54197 18.2545 0.987369 18.6999C1.43277 19.1453 2.03686 19.3955 2.66675 19.3955H12.1667C12.7966 19.3955 13.4007 19.1453 13.8461 18.6999C14.2915 18.2545 14.5417 17.6504 14.5417 17.0205V5.98507C14.5417 5.67015 14.4165 5.36816 14.1938 5.14551L9.79175 0.743445C9.5691 0.52073 9.26711 0.395575 8.95219 0.395508ZM9.198 4.55176V2.17676L12.7605 5.73926H10.3855C10.0706 5.73926 9.76851 5.61415 9.54581 5.39145C9.32311 5.16875 9.198 4.8667 9.198 4.55176ZM8.0105 9.30176V13.8059L9.37137 12.4439C9.48286 12.3324 9.63408 12.2698 9.79175 12.2698C9.94942 12.2698 10.1006 12.3324 10.2121 12.4439C10.3236 12.5554 10.3862 12.7066 10.3862 12.8643C10.3862 13.0219 10.3236 13.1731 10.2121 13.2846L7.83712 15.6596C7.78197 15.7149 7.71645 15.7588 7.64431 15.7887C7.57218 15.8187 7.49485 15.8341 7.41675 15.8341C7.33865 15.8341 7.26132 15.8187 7.18918 15.7887C7.11705 15.7588 7.05153 15.7149 6.99637 15.6596L4.62137 13.2846C4.50988 13.1731 4.44725 13.0219 4.44725 12.8643C4.44725 12.7066 4.50988 12.5554 4.62137 12.4439C4.73286 12.3324 4.88408 12.2698 5.04175 12.2698C5.19942 12.2698 5.35063 12.3324 5.46212 12.4439L6.823 13.8059V9.30176C6.823 9.14429 6.88555 8.99326 6.9969 8.88191C7.10825 8.77056 7.25928 8.70801 7.41675 8.70801C7.57422 8.70801 7.72524 8.77056 7.83659 8.88191C7.94794 8.99326 8.0105 9.14429 8.0105 9.30176Z" fill="#6F6D6D"/>
</svg>
