<svg width="16" height="14" viewBox="0 0 16 14" fill="none" xmlns="http://www.w3.org/2000/svg">
<path d="M1.27943 5.85987C0.581612 5.85987 0.0183105 6.41883 0.0183105 7.11126C0.0183105 7.8037 0.581612 8.36265 1.27943 8.36265C1.97725 8.36265 2.54055 7.8037 2.54055 7.11126C2.54055 6.41883 1.97725 5.85987 1.27943 5.85987ZM1.27943 0.854309C0.581612 0.854309 0.0183105 1.41326 0.0183105 2.1057C0.0183105 2.79814 0.581612 3.35709 1.27943 3.35709C1.97725 3.35709 2.54055 2.79814 2.54055 2.1057C2.54055 1.41326 1.97725 0.854309 1.27943 0.854309ZM1.27943 10.8654C0.581612 10.8654 0.0183105 11.4327 0.0183105 12.1168C0.0183105 12.8009 0.590019 13.3682 1.27943 13.3682C1.96885 13.3682 2.54055 12.8009 2.54055 12.1168C2.54055 11.4327 1.97725 10.8654 1.27943 10.8654ZM4.64243 12.9511H14.7314C15.1938 12.9511 15.5722 12.5757 15.5722 12.1168C15.5722 11.658 15.1938 11.2826 14.7314 11.2826H4.64243C4.18001 11.2826 3.80168 11.658 3.80168 12.1168C3.80168 12.5757 4.18001 12.9511 4.64243 12.9511ZM4.64243 7.94552H14.7314C15.1938 7.94552 15.5722 7.5701 15.5722 7.11126C15.5722 6.65242 15.1938 6.277 14.7314 6.277H4.64243C4.18001 6.277 3.80168 6.65242 3.80168 7.11126C3.80168 7.5701 4.18001 7.94552 4.64243 7.94552ZM3.80168 2.1057C3.80168 2.56454 4.18001 2.93996 4.64243 2.93996H14.7314C15.1938 2.93996 15.5722 2.56454 15.5722 2.1057C15.5722 1.64686 15.1938 1.27144 14.7314 1.27144H4.64243C4.18001 1.27144 3.80168 1.64686 3.80168 2.1057Z" fill="white"/>
</svg>
