<svg width="28" height="28" viewBox="0 0 28 28" fill="none" xmlns="http://www.w3.org/2000/svg">
<path d="M24.5 0.5H3.5C1.835 0.5 0.5 1.85 0.5 3.5V24.5C0.5 26.15 1.835 27.5 3.5 27.5H24.5C26.15 27.5 27.5 26.15 27.5 24.5V3.5C27.5 1.85 26.15 0.5 24.5 0.5ZM20 15.5H15.5V20C15.5 20.825 14.825 21.5 14 21.5C13.175 21.5 12.5 20.825 12.5 20V15.5H8C7.175 15.5 6.5 14.825 6.5 14C6.5 13.175 7.175 12.5 8 12.5H12.5V8C12.5 7.175 13.175 6.5 14 6.5C14.825 6.5 15.5 7.175 15.5 8V12.5H20C20.825 12.5 21.5 13.175 21.5 14C21.5 14.825 20.825 15.5 20 15.5Z" fill="#2A69F6"/>
</svg>
