<svg width="35" height="35" viewBox="0 0 35 35" fill="none" xmlns="http://www.w3.org/2000/svg">
<path d="M17.4828 0.416626C8.05275 0.416626 0.416504 8.06996 0.416504 17.5C0.416504 26.93 8.05275 34.5833 17.4828 34.5833C26.9298 34.5833 34.5832 26.93 34.5832 17.5C34.5832 8.06996 26.9298 0.416626 17.4828 0.416626ZM17.4998 31.1666C9.949 31.1666 3.83317 25.0508 3.83317 17.5C3.83317 9.94913 9.949 3.83329 17.4998 3.83329C25.0507 3.83329 31.1665 9.94913 31.1665 17.5C31.1665 25.0508 25.0507 31.1666 17.4998 31.1666ZM17.124 8.95829H17.0215C16.3382 8.95829 15.7915 9.50496 15.7915 10.1883V18.2516C15.7915 18.8495 16.099 19.4133 16.6286 19.7208L23.7182 23.9745C24.299 24.3162 25.0507 24.1454 25.3923 23.5645C25.7511 22.9837 25.5632 22.215 24.9653 21.8733L18.354 17.9441V10.1883C18.354 9.50496 17.8073 8.95829 17.124 8.95829Z" fill="black"/>
</svg>
