<svg width="41" height="41" viewBox="0 0 41 41" fill="none" xmlns="http://www.w3.org/2000/svg">
<path d="M20.5 0C9.20244 0 0 9.20244 0 20.5C0 31.7976 9.20244 41 20.5 41C31.7976 41 41 31.7976 41 20.5C41 9.20244 31.7976 0 20.5 0ZM20.5 4.1C29.5818 4.1 36.9 11.4182 36.9 20.5C36.9 29.5818 29.5818 36.9 20.5 36.9C11.4182 36.9 4.1 29.5818 4.1 20.5C4.1 11.4182 11.4182 4.1 20.5 4.1ZM29.3006 12.9006L16.4 25.8012L11.6994 21.1006L8.80059 23.9994L16.4 31.5988L32.1994 15.7994L29.3006 12.9006Z" fill="#009846"/>
</svg>
