<svg width="41" height="41" viewBox="0 0 41 41" fill="none" xmlns="http://www.w3.org/2000/svg">
<path d="M20.5 0C9.20244 0 0 9.20244 0 20.5C0 31.7976 9.20244 41 20.5 41C31.7976 41 41 31.7976 41 20.5C41 9.20244 31.7976 0 20.5 0ZM20.5 4.1C29.5818 4.1 36.9 11.4182 36.9 20.5C36.9 29.5818 29.5818 36.9 20.5 36.9C11.4182 36.9 4.1 29.5818 4.1 20.5C4.1 11.4182 11.4182 4.1 20.5 4.1ZM13.7494 10.8506L10.8506 13.7494L17.6012 20.5L10.8506 27.2506L13.7494 30.1494L20.5 23.3988L27.2506 30.1494L30.1494 27.2506L23.3988 20.5L30.1494 13.7494L27.2506 10.8506L20.5 17.6012L13.7494 10.8506Z" fill="#B81824"/>
</svg>
