<svg width="20" height="19" viewBox="0 0 20 19" fill="none" xmlns="http://www.w3.org/2000/svg">
<path d="M4.37191 7.92839C4.37172 7.68276 4.46254 7.44713 4.62438 7.27332C4.78622 7.09951 5.00583 7.00177 5.23489 7.0016L6.09857 7.00094C6.32764 7.00077 6.54739 7.09818 6.7095 7.27174C6.8716 7.4453 6.96277 7.6808 6.96296 7.92642L6.96362 8.79513L7.31021 10.2758C7.3534 10.461 7.34213 10.656 7.27794 10.8341C7.21376 11.0123 7.0998 11.1647 6.95168 11.2707L6.14889 11.8455C6.00712 11.947 5.84053 12.0012 5.67009 12.0013C5.49965 12.0014 5.33298 11.9475 5.19106 11.8462L4.3874 11.2726C4.23927 11.1668 4.12525 11.0144 4.06096 10.8364C3.99666 10.6584 3.98523 10.4635 4.02822 10.2782L4.37257 8.7971L4.37191 7.92839ZM6.09928 7.92708L5.23559 7.92773L5.23625 8.79644C5.2363 8.87231 5.22766 8.9479 5.21051 9.02151L4.86616 10.5017L5.66982 11.0753L6.47261 10.5005L6.12602 9.02082C6.10876 8.94724 6.1 8.87166 6.09993 8.79579L6.09928 7.92708Z" fill="black"/>
<path d="M0 2C0 1.46957 0.210714 0.960859 0.585786 0.585786C0.960859 0.210714 1.46957 0 2 0L10 0C10.5304 0 11.0391 0.210714 11.4142 0.585786C11.7893 0.960859 12 1.46957 12 2V14C12 14.5304 11.7893 15.0391 11.4142 15.4142C11.0391 15.7893 10.5304 16 10 16H2C1.46957 16 0.960859 15.7893 0.585786 15.4142C0.210714 15.0391 0 14.5304 0 14V2ZM5.5 1H2C1.73478 1 1.48043 1.10536 1.29289 1.29289C1.10536 1.48043 1 1.73478 1 2V14C1 14.2652 1.10536 14.5196 1.29289 14.7071C1.48043 14.8946 1.73478 15 2 15H10C10.2652 15 10.5196 14.8946 10.7071 14.7071C10.8946 14.5196 11 14.2652 11 14V2C11 1.73478 10.8946 1.48043 10.7071 1.29289C10.5196 1.10536 10.2652 1 10 1H7V2H6V3H7V4H6V5H7V6H5.5V5H4.5V4H5.5V3H4.5V2H5.5V1Z" fill="black"/>
<g clip-path="url(#clip0_2_11)">
<path d="M20 13.5C20 14.9587 19.4205 16.3576 18.3891 17.3891C17.3576 18.4205 15.9587 19 14.5 19C13.0413 19 11.6424 18.4205 10.6109 17.3891C9.57946 16.3576 9 14.9587 9 13.5C9 12.0413 9.57946 10.6424 10.6109 9.61091C11.6424 8.57946 13.0413 8 14.5 8C15.9587 8 17.3576 8.57946 18.3891 9.61091C19.4205 10.6424 20 12.0413 20 13.5ZM14.8438 11.0938C14.8438 11.0026 14.8075 10.9151 14.7431 10.8507C14.6786 10.7862 14.5912 10.75 14.5 10.75C14.4088 10.75 14.3214 10.7862 14.2569 10.8507C14.1925 10.9151 14.1562 11.0026 14.1562 11.0938V15.0764L12.6809 13.6004C12.6163 13.5358 12.5288 13.4996 12.4375 13.4996C12.3462 13.4996 12.2587 13.5358 12.1941 13.6004C12.1296 13.6649 12.0933 13.7525 12.0933 13.8438C12.0933 13.935 12.1296 14.0226 12.1941 14.0871L14.2566 16.1496C14.2886 16.1816 14.3265 16.207 14.3683 16.2244C14.41 16.2417 14.4548 16.2506 14.5 16.2506C14.5452 16.2506 14.59 16.2417 14.6317 16.2244C14.6735 16.207 14.7114 16.1816 14.7434 16.1496L16.8059 14.0871C16.8704 14.0226 16.9067 13.935 16.9067 13.8438C16.9067 13.7525 16.8704 13.6649 16.8059 13.6004C16.7413 13.5358 16.6538 13.4996 16.5625 13.4996C16.4712 13.4996 16.3837 13.5358 16.3191 13.6004L14.8438 15.0764V11.0938Z" fill="black"/>
</g>
<defs>
<clipPath id="clip0_2_11">
<rect width="11" height="11" fill="white" transform="translate(9 8)"/>
</clipPath>
</defs>
</svg>
