<svg width="56" height="56" viewBox="0 0 56 56" fill="none" xmlns="http://www.w3.org/2000/svg">
<path fill-rule="evenodd" clip-rule="evenodd" d="M24.2294 1.59968C25.1733 0.656944 26.4364 0.102223 27.7692 0.0449584C29.1021 -0.0123057 30.408 0.432046 31.4294 1.29035L31.7707 1.60235L36.8374 6.66635H44C45.3451 6.66659 46.6404 7.17507 47.6265 8.08991C48.6125 9.00475 49.2165 10.2584 49.3174 11.5997L49.3334 11.9997V19.1623L54.4 24.229C55.3435 25.1731 55.8987 26.4367 55.956 27.7702C56.0133 29.1037 55.5684 30.4102 54.7094 31.4317L54.3974 31.7703L49.3307 36.837V43.9997C49.3311 45.3452 48.823 46.6412 47.9081 47.6278C46.9931 48.6144 45.7391 49.2188 44.3974 49.3197L44 49.333H36.84L31.7734 54.3997C30.8293 55.3432 29.5657 55.8984 28.2322 55.9556C26.8987 56.0129 25.5922 55.5681 24.5707 54.709L24.232 54.3997L19.1654 49.333H12C10.6545 49.3334 9.35853 48.8253 8.37191 47.9104C7.3853 46.9954 6.78096 45.7414 6.68004 44.3997L6.66671 43.9997V36.837L1.60004 31.7703C0.656561 30.8262 0.10137 29.5627 0.0441003 28.2292C-0.0131694 26.8957 0.431645 25.5892 1.29071 24.5677L1.60004 24.229L6.66671 19.1623V11.9997C6.66696 10.6546 7.17543 9.35929 8.09027 8.37324C9.00512 7.38719 10.2588 6.78323 11.6 6.68235L12 6.66635H19.1627L24.2294 1.59968ZM36.2107 19.9543L24.8934 31.2717L20.1787 26.557C19.6783 26.057 18.9998 25.7762 18.2924 25.7765C17.585 25.7767 16.9067 26.058 16.4067 26.5583C15.9067 27.0587 15.6259 27.7372 15.6262 28.4446C15.6264 29.152 15.9077 29.8303 16.408 30.3303L22.8187 36.741C23.0911 37.0135 23.4145 37.2297 23.7705 37.3772C24.1265 37.5247 24.5081 37.6007 24.8934 37.6007C25.2787 37.6007 25.6603 37.5247 26.0162 37.3772C26.3722 37.2297 26.6956 37.0135 26.968 36.741L39.9814 23.725C40.4671 23.2221 40.7359 22.5485 40.7298 21.8493C40.7238 21.1501 40.4433 20.4813 39.9489 19.9868C39.4545 19.4924 38.7856 19.212 38.0864 19.2059C37.3873 19.1998 36.7136 19.4686 36.2107 19.9543Z" fill="#972E3F"/>
</svg>
