<svg width="92" height="92" viewBox="0 0 92 92" fill="none" xmlns="http://www.w3.org/2000/svg">
<path d="M45.9993 0C44.9873 0 43.9868 0.0345 42.992 0.09775L43.36 5.83625C45.1177 5.72266 46.8809 5.72266 48.6385 5.83625L49.0065 0.09775C48.0054 0.0328396 47.0025 0.000239269 45.9993 0ZM37.0293 0.874C35.0398 1.27075 33.0963 1.794 31.2103 2.4265L33.056 7.8775C34.7063 7.314 36.4025 6.85975 38.139 6.51475L37.0293 0.87975V0.874ZM60.7883 2.43225C58.8867 1.78758 56.9448 1.26896 54.975 0.87975L53.8595 6.51475C55.596 6.85975 57.2923 7.31975 58.9425 7.8775L60.7883 2.43225ZM71.558 7.751C69.8892 6.63403 68.1489 5.62754 66.3485 4.738L63.8013 9.89C65.3825 10.672 66.9063 11.5575 68.361 12.5292L71.558 7.751ZM25.6443 4.738C23.8388 5.62925 22.1023 6.6355 20.4405 7.751L23.6375 12.5235C25.0989 11.5481 26.622 10.6684 28.1973 9.89L25.6443 4.738ZM15.668 11.4138C14.1615 12.7363 12.7355 14.1622 11.413 15.6687L15.737 19.4637C16.8985 18.1412 18.1405 16.8992 19.463 15.7377L15.668 11.4138ZM80.5855 15.6687C79.2609 14.1597 77.8396 12.7384 76.3305 11.4138L72.5355 15.7377C73.858 16.8992 75.1058 18.1412 76.2615 19.4637L80.5855 15.6687ZM87.2613 25.645C86.3718 23.8464 85.3653 22.1081 84.2483 20.4413L79.4758 23.6383C80.4475 25.093 81.3273 26.6167 82.1093 28.198L87.2613 25.645ZM7.75028 20.4413C6.63478 22.103 5.62278 23.8395 4.73728 25.6507L9.88928 28.198C10.6713 26.6167 11.5568 25.093 12.5285 23.6383L7.75028 20.4413ZM2.43153 31.211C1.78684 33.1125 1.26822 35.0545 0.879031 37.0243L6.51403 38.1397C6.85903 36.4032 7.31903 34.707 7.87678 33.0568L2.43153 31.211ZM91.1253 37.03C90.7364 35.0583 90.2177 33.1144 89.5728 31.211L84.1218 33.0568C84.6853 34.707 85.1395 36.4032 85.4845 38.1397L91.1195 37.0243L91.1253 37.03ZM0.0970313 42.9928C-0.0323438 44.9955 -0.0323438 47.0045 0.0970313 49.0072L5.83553 48.6392C5.72194 46.8816 5.72194 45.1184 5.83553 43.3607L0.0970313 42.9928ZM91.9993 46C91.9991 44.9968 91.9665 43.9939 91.9015 42.9928L86.163 43.3607C86.2767 45.1184 86.2767 46.8816 86.163 48.6392L91.9015 49.0072C91.9665 48.0061 91.9991 47.0032 91.9993 46ZM0.873281 54.97C1.27003 56.9595 1.79328 58.903 2.42578 60.789L7.87678 58.9433C7.31125 57.2807 6.85601 55.5827 6.51403 53.8602L0.879031 54.9757L0.873281 54.97ZM89.567 60.789C90.211 58.903 90.7285 56.9595 91.1195 54.9757L85.4845 53.8602C85.1395 55.5967 84.6795 57.293 84.1218 58.9433L89.567 60.789ZM4.73728 66.355C5.62705 68.1534 6.63353 69.8917 7.75028 71.5587L12.5228 68.3617C11.5463 66.901 10.6666 65.3778 9.88928 63.802L4.73728 66.3492V66.355ZM84.2483 71.5587C85.3638 69.897 86.3758 68.1605 87.2613 66.3492L82.1093 63.802C81.3273 65.3832 80.4418 66.907 79.47 68.3617L84.2483 71.5587ZM11.413 76.3312C12.7355 77.8377 14.1615 79.2638 15.668 80.5863L19.463 76.2622C18.1415 75.1024 16.8969 73.8578 15.737 72.5362L11.413 76.3312ZM76.3305 80.5863C77.837 79.2638 79.263 77.8377 80.5855 76.3312L76.2615 72.5362C75.1058 73.8587 73.858 75.1065 72.5355 76.2622L76.3305 80.5863ZM66.3543 87.262C68.1598 86.3707 69.8963 85.3645 71.558 84.249L68.361 79.4765C66.8996 80.4519 65.3765 81.3316 63.8013 82.11L66.3485 87.262H66.3543ZM20.4405 84.249C22.1023 85.3645 23.8388 86.3765 25.65 87.262L28.1973 82.11C26.6213 81.3308 25.0982 80.4492 23.6375 79.4708L20.4405 84.249ZM31.2103 89.5677C33.0963 90.2117 35.0398 90.7293 37.0235 91.1203L38.139 85.4852C36.4166 85.1431 34.7186 84.6879 33.056 84.1225L31.2103 89.5677ZM54.9693 91.126C56.941 90.7371 58.8849 90.2184 60.7883 89.5735L58.9425 84.1225C57.28 84.6879 55.5819 85.1431 53.8595 85.4852L54.975 91.1203L54.9693 91.126ZM42.992 91.9022C44.9948 92.0318 47.0038 92.0318 49.0065 91.9022L48.6385 86.1637C46.8809 86.2775 45.1177 86.2775 43.36 86.1637L42.992 91.9022ZM48.8743 25.875C48.8743 25.1125 48.5714 24.3812 48.0322 23.8421C47.493 23.3029 46.7618 23 45.9993 23C45.2368 23 44.5055 23.3029 43.9664 23.8421C43.4272 24.3812 43.1243 25.1125 43.1243 25.875V43.125H25.8743C25.1118 43.125 24.3805 43.4279 23.8414 43.9671C23.3022 44.5062 22.9993 45.2375 22.9993 46C22.9993 46.7625 23.3022 47.4938 23.8414 48.0329C24.3805 48.5721 25.1118 48.875 25.8743 48.875H43.1243V66.125C43.1243 66.8875 43.4272 67.6188 43.9664 68.1579C44.5055 68.6971 45.2368 69 45.9993 69C46.7618 69 47.493 68.6971 48.0322 68.1579C48.5714 67.6188 48.8743 66.8875 48.8743 66.125V48.875H66.1243C66.8868 48.875 67.618 48.5721 68.1572 48.0329C68.6964 47.4938 68.9993 46.7625 68.9993 46C68.9993 45.2375 68.6964 44.5062 68.1572 43.9671C67.618 43.4279 66.8868 43.125 66.1243 43.125H48.8743V25.875Z" fill="#972E3F"/>
</svg>
