<svg width="24" height="27" viewBox="0 0 24 27" fill="none" xmlns="http://www.w3.org/2000/svg">
<path d="M10.6667 18.6667H13.3333V21.3333H10.6667V18.6667ZM10.6667 8H13.3333V16H10.6667V8ZM21.3333 2.66667H15.76C15.2 1.12 13.7333 0 12 0C10.2667 0 8.8 1.12 8.24 2.66667H2.66667C2.48 2.66667 2.30667 2.68 2.13333 2.72C1.61333 2.82667 1.14667 3.09333 0.786667 3.45333C0.546667 3.69333 0.346667 3.98667 0.213333 4.30667C0.0800001 4.61333 0 4.96 0 5.33333V24C0 24.36 0.0800001 24.72 0.213333 25.04C0.346667 25.36 0.546667 25.64 0.786667 25.8933C1.14667 26.2533 1.61333 26.52 2.13333 26.6267C2.30667 26.6533 2.48 26.6667 2.66667 26.6667H21.3333C22.8 26.6667 24 25.4667 24 24V5.33333C24 3.86667 22.8 2.66667 21.3333 2.66667ZM12 2.33333C12.5467 2.33333 13 2.78667 13 3.33333C13 3.88 12.5467 4.33333 12 4.33333C11.4533 4.33333 11 3.88 11 3.33333C11 2.78667 11.4533 2.33333 12 2.33333ZM21.3333 24H2.66667V5.33333H21.3333V24Z" fill="white"/>
</svg>
