<svg width="64" height="40" viewBox="0 0 64 40" fill="none" xmlns="http://www.w3.org/2000/svg">
<path d="M32 0.666504C34.4754 0.666504 36.8493 1.64983 38.5997 3.40017C40.35 5.15051 41.3333 7.52448 41.3333 9.99984C41.3333 12.4752 40.35 14.8492 38.5997 16.5995C36.8493 18.3498 34.4754 19.3332 32 19.3332C29.5246 19.3332 27.1507 18.3498 25.4003 16.5995C23.65 14.8492 22.6667 12.4752 22.6667 9.99984C22.6667 7.52448 23.65 5.15051 25.4003 3.40017C27.1507 1.64983 29.5246 0.666504 32 0.666504ZM13.3333 7.33317C14.8267 7.33317 16.2133 7.73317 17.4133 8.45317C17.0133 12.2665 18.1333 16.0532 20.4267 19.0132C19.0933 21.5732 16.4267 23.3332 13.3333 23.3332C11.2116 23.3332 9.17677 22.4903 7.67648 20.99C6.17619 19.4897 5.33333 17.4549 5.33333 15.3332C5.33333 13.2114 6.17619 11.1766 7.67648 9.67632C9.17677 8.17602 11.2116 7.33317 13.3333 7.33317ZM50.6667 7.33317C52.7884 7.33317 54.8232 8.17602 56.3235 9.67632C57.8238 11.1766 58.6667 13.2114 58.6667 15.3332C58.6667 17.4549 57.8238 19.4897 56.3235 20.99C54.8232 22.4903 52.7884 23.3332 50.6667 23.3332C47.5733 23.3332 44.9067 21.5732 43.5733 19.0132C45.8983 16.0116 46.9775 12.2297 46.5867 8.45317C47.7867 7.73317 49.1733 7.33317 50.6667 7.33317ZM14.6667 34.6665C14.6667 29.1465 22.4267 24.6665 32 24.6665C41.5733 24.6665 49.3333 29.1465 49.3333 34.6665V39.3332H14.6667V34.6665ZM0 39.3332V35.3332C0 31.6265 5.04 28.5065 11.8667 27.5998C10.2933 29.4132 9.33333 31.9198 9.33333 34.6665V39.3332H0ZM64 39.3332H54.6667V34.6665C54.6667 31.9198 53.7067 29.4132 52.1333 27.5998C58.96 28.5065 64 31.6265 64 35.3332V39.3332Z" fill="#972E3F"/>
</svg>
