<svg width="21" height="15" viewBox="0 0 21 15" fill="none" xmlns="http://www.w3.org/2000/svg">
<path d="M7.35 9.1875C4.893 9.1875 0 10.416 0 12.8625V14.7H14.7V12.8625C14.7 10.416 9.807 9.1875 7.35 9.1875ZM2.457 12.6C3.339 11.991 5.4705 11.2875 7.35 11.2875C9.2295 11.2875 11.361 11.991 12.243 12.6H2.457ZM7.35 7.35C9.3765 7.35 11.025 5.7015 11.025 3.675C11.025 1.6485 9.3765 0 7.35 0C5.3235 0 3.675 1.6485 3.675 3.675C3.675 5.7015 5.3235 7.35 7.35 7.35ZM7.35 2.1C8.2215 2.1 8.925 2.8035 8.925 3.675C8.925 4.5465 8.2215 5.25 7.35 5.25C6.4785 5.25 5.775 4.5465 5.775 3.675C5.775 2.8035 6.4785 2.1 7.35 2.1ZM14.742 9.2505C15.96 10.1325 16.8 11.3085 16.8 12.8625V14.7H21V12.8625C21 10.7415 17.325 9.534 14.742 9.2505ZM13.65 7.35C15.6765 7.35 17.325 5.7015 17.325 3.675C17.325 1.6485 15.6765 0 13.65 0C13.083 0 12.558 0.1365 12.075 0.3675C12.7365 1.302 13.125 2.4465 13.125 3.675C13.125 4.9035 12.7365 6.048 12.075 6.9825C12.558 7.2135 13.083 7.35 13.65 7.35Z" fill="#6F6D6D"/>
</svg>
